<svg xmlns="http://www.w3.org/2000/svg" xmlns:xlink="http://www.w3.org/1999/xlink" width="200" height="200" viewBox="0 0 200 200">
  <defs>
    <filter id="Path_1">
      <feOffset dy="3" input="SourceAlpha"/>
      <feGaussianBlur stdDeviation="3" result="blur"/>
      <feFlood flood-opacity="0.161" result="color"/>
      <feComposite operator="out" in="SourceGraphic" in2="blur"/>
      <feComposite operator="in" in="color"/>
      <feComposite operator="in" in2="SourceGraphic"/>
    </filter>
    <filter id="Icon_awesome-users">
      <feOffset dx="3" dy="10" input="SourceAlpha"/>
      <feGaussianBlur stdDeviation="10" result="blur-2"/>
      <feFlood flood-opacity="0.161" result="color-2"/>
      <feComposite operator="out" in="SourceGraphic" in2="blur-2"/>
      <feComposite operator="in" in="color-2"/>
      <feComposite operator="in" in2="SourceGraphic"/>
    </filter>
    <clipPath id="clip-crowdly-logo">
      <rect width="200" height="200"/>
    </clipPath>
  </defs>
  <g id="crowdly-logo" clip-path="url(#clip-crowdly-logo)">
    <g data-type="innerShadowGroup">
      <path id="Path_1-2" data-name="Path 1" d="M130.615-28.317Q111.18-8.986,83.8-8.986T36.99-28.317Q17.659-47.753,17.659-75.13T36.99-121.942Q56.321-141.273,83.8-141.273q27.377,0,46.813,19.331a65.476,65.476,0,0,1,16.2,26.123H158.2a73.88,73.88,0,0,0-19.854-33.751q-22.466-22.57-54.44-22.57T29.571-129.57Q6.9-107.1,6.792-75.13q0,31.766,22.57,54.44Q52.037,1.881,83.8,1.881q31.87,0,54.44-22.57A74.6,74.6,0,0,0,158.1-54.44H146.812A64.538,64.538,0,0,1,130.615-28.317Z" transform="translate(17.503 172)" fill="#1da1f2"/>
      <g transform="matrix(1, 0, 0, 1, 0, 0)" filter="url(#Path_1)">
        <path id="Path_1-3" data-name="Path 1" d="M130.615-28.317Q111.18-8.986,83.8-8.986T36.99-28.317Q17.659-47.753,17.659-75.13T36.99-121.942Q56.321-141.273,83.8-141.273q27.377,0,46.813,19.331a65.476,65.476,0,0,1,16.2,26.123H158.2a73.88,73.88,0,0,0-19.854-33.751q-22.466-22.57-54.44-22.57T29.571-129.57Q6.9-107.1,6.792-75.13q0,31.766,22.57,54.44Q52.037,1.881,83.8,1.881q31.87,0,54.44-22.57A74.6,74.6,0,0,0,158.1-54.44H146.812A64.538,64.538,0,0,1,130.615-28.317Z" transform="translate(17.5 172)" fill="#fff"/>
      </g>
    </g>
    <g data-type="innerShadowGroup">
      <path id="Icon_awesome-users-2" data-name="Icon awesome-users" d="M17.189,36.629A11.46,11.46,0,1,0,5.73,25.169,11.47,11.47,0,0,0,17.189,36.629Zm80.217,0a11.46,11.46,0,1,0-11.46-11.46A11.47,11.47,0,0,0,97.406,36.629Zm5.73,5.73H91.676a11.426,11.426,0,0,0-8.075,3.33A26.191,26.191,0,0,1,97.048,65.278h11.818a5.724,5.724,0,0,0,5.73-5.73v-5.73A11.47,11.47,0,0,0,103.136,42.358Zm-45.838,0A20.054,20.054,0,1,0,37.244,22.3,20.044,20.044,0,0,0,57.3,42.358Zm13.751,5.73H69.563a27.688,27.688,0,0,1-24.531,0H43.546A20.633,20.633,0,0,0,22.919,68.715v5.157a8.6,8.6,0,0,0,8.595,8.595H83.082a8.6,8.6,0,0,0,8.595-8.595V68.715A20.633,20.633,0,0,0,71.049,48.088Zm-40.055-2.4a11.426,11.426,0,0,0-8.075-3.33H11.46A11.47,11.47,0,0,0,0,53.818v5.73a5.724,5.724,0,0,0,5.73,5.73h11.8A26.257,26.257,0,0,1,30.995,45.689Z" transform="translate(44.706 54.533)" fill="#1da1f2"/>
      <g transform="matrix(1, 0, 0, 1, 0, 0)" filter="url(#Icon_awesome-users)">
        <path id="Icon_awesome-users-3" data-name="Icon awesome-users" d="M17.189,36.629A11.46,11.46,0,1,0,5.73,25.169,11.47,11.47,0,0,0,17.189,36.629Zm80.217,0a11.46,11.46,0,1,0-11.46-11.46A11.47,11.47,0,0,0,97.406,36.629Zm5.73,5.73H91.676a11.426,11.426,0,0,0-8.075,3.33A26.191,26.191,0,0,1,97.048,65.278h11.818a5.724,5.724,0,0,0,5.73-5.73v-5.73A11.47,11.47,0,0,0,103.136,42.358Zm-45.838,0A20.054,20.054,0,1,0,37.244,22.3,20.044,20.044,0,0,0,57.3,42.358Zm13.751,5.73H69.563a27.688,27.688,0,0,1-24.531,0H43.546A20.633,20.633,0,0,0,22.919,68.715v5.157a8.6,8.6,0,0,0,8.595,8.595H83.082a8.6,8.6,0,0,0,8.595-8.595V68.715A20.633,20.633,0,0,0,71.049,48.088Zm-40.055-2.4a11.426,11.426,0,0,0-8.075-3.33H11.46A11.47,11.47,0,0,0,0,53.818v5.73a5.724,5.724,0,0,0,5.73,5.73h11.8A26.257,26.257,0,0,1,30.995,45.689Z" transform="translate(44.71 54.53)" fill="#fff"/>
      </g>
    </g>
  </g>
</svg>
