<svg class="animated" id="freepik_stories-browsing-online" xmlns="http://www.w3.org/2000/svg" viewBox="0 0 500 500" version="1.1" xmlns:xlink="http://www.w3.org/1999/xlink" xmlns:svgjs="http://svgjs.com/svgjs"><style>svg#freepik_stories-browsing-online:not(.animated) .animable {opacity: 0;}svg#freepik_stories-browsing-online.animated #freepik--background-complete--inject-27 {animation: 1s 1 forwards cubic-bezier(.36,-0.01,.5,1.38) slideUp,1.5s Infinite  linear floating;animation-delay: 0s,1s;}svg#freepik_stories-browsing-online.animated #freepik--Shadow--inject-27 {animation: 1s 1 forwards cubic-bezier(.36,-0.01,.5,1.38) slideDown;animation-delay: 0s;}svg#freepik_stories-browsing-online.animated #freepik--Character--inject-27 {animation: 1s 1 forwards cubic-bezier(.36,-0.01,.5,1.38) zoomIn;animation-delay: 0s;}svg#freepik_stories-browsing-online.animated #freepik--Browser--inject-27 {animation: 1s 1 forwards cubic-bezier(.36,-0.01,.5,1.38) slideUp,1.5s Infinite  linear shake;animation-delay: 0s,1s;}svg#freepik_stories-browsing-online.animated #freepik--Desk--inject-27 {animation: 1s 1 forwards cubic-bezier(.36,-0.01,.5,1.38) slideRight,1.5s Infinite  linear wind;animation-delay: 0s,1s;}            @keyframes slideUp {                0% {                    opacity: 0;                    transform: translateY(30px);                }                100% {                    opacity: 1;                    transform: inherit;                }            }                    @keyframes floating {                0% {                    opacity: 1;                    transform: translateY(0px);                }                50% {                    transform: translateY(-10px);                }                100% {                    opacity: 1;                    transform: translateY(0px);                }            }                    @keyframes slideDown {                0% {                    opacity: 0;                    transform: translateY(-30px);                }                100% {                    opacity: 1;                    transform: translateY(0);                }            }                    @keyframes zoomIn {                0% {                    opacity: 0;                    transform: scale(0.5);                }                100% {                    opacity: 1;                    transform: scale(1);                }            }                    @keyframes shake {                10%, 90% {                    transform: translate3d(-1px, 0, 0);                  }                  20%, 80% {                    transform: translate3d(2px, 0, 0);                  }                  30%, 50%, 70% {                    transform: translate3d(-4px, 0, 0);                  }                  40%, 60% {                    transform: translate3d(4px, 0, 0);                  }            }                    @keyframes slideRight {                0% {                    opacity: 0;                    transform: translateX(30px);                }                100% {                    opacity: 1;                    transform: translateX(0);                }            }                    @keyframes wind {                0% {                    transform: rotate( 0deg );                }                25% {                    transform: rotate( 1deg );                }                75% {                    transform: rotate( -1deg );                }            }        </style><g id="freepik--background-complete--inject-27" style="transform-origin: 250px 228.23px 0px;" class="animable"><rect x="416.78" y="398.49" width="33.12" height="0.25" style="fill: rgb(235, 235, 235); transform-origin: 433.34px 398.615px 0px;" id="el916zhjbla8v" class="animable"></rect><rect x="322.53" y="401.21" width="8.69" height="0.25" style="fill: rgb(235, 235, 235); transform-origin: 326.875px 401.335px 0px;" id="elpauwz3yager" class="animable"></rect><rect x="396.59" y="389.21" width="19.19" height="0.25" style="fill: rgb(235, 235, 235); transform-origin: 406.185px 389.335px 0px;" id="el8gkd2v038b5" class="animable"></rect><rect x="52.46" y="390.89" width="43.19" height="0.25" style="fill: rgb(235, 235, 235); transform-origin: 74.055px 391.015px 0px;" id="el9f7bhddcwru" class="animable"></rect><rect x="104.56" y="390.89" width="6.33" height="0.25" style="fill: rgb(235, 235, 235); transform-origin: 107.725px 391.015px 0px;" id="el3hhp5n8670t" class="animable"></rect><rect x="131.47" y="395.11" width="93.68" height="0.25" style="fill: rgb(235, 235, 235); transform-origin: 178.31px 395.235px 0px;" id="el1hlpoqnacx5" class="animable"></rect><path d="M237,337.8H43.91a5.71,5.71,0,0,1-5.7-5.71V60.66A5.71,5.71,0,0,1,43.91,55H237a5.71,5.71,0,0,1,5.71,5.71V332.09A5.71,5.71,0,0,1,237,337.8ZM43.91,55.2a5.46,5.46,0,0,0-5.45,5.46V332.09a5.46,5.46,0,0,0,5.45,5.46H237a5.47,5.47,0,0,0,5.46-5.46V60.66A5.47,5.47,0,0,0,237,55.2Z" style="fill: rgb(235, 235, 235); transform-origin: 140.46px 196.4px 0px;" id="elkxr8ywcvch" class="animable"></path><path d="M453.31,337.8H260.21a5.72,5.72,0,0,1-5.71-5.71V60.66A5.72,5.72,0,0,1,260.21,55h193.1A5.71,5.71,0,0,1,459,60.66V332.09A5.71,5.71,0,0,1,453.31,337.8ZM260.21,55.2a5.47,5.47,0,0,0-5.46,5.46V332.09a5.47,5.47,0,0,0,5.46,5.46h193.1a5.47,5.47,0,0,0,5.46-5.46V60.66a5.47,5.47,0,0,0-5.46-5.46Z" style="fill: rgb(235, 235, 235); transform-origin: 356.75px 196.4px 0px;" id="el7qm9b54kaia" class="animable"></path><rect y="382.4" width="500" height="0.25" style="fill: rgb(235, 235, 235); transform-origin: 250px 382.525px 0px;" id="eljh6bfy5xxs" class="animable"></rect><rect x="54.55" y="225.96" width="93.08" height="157.55" style="fill: rgb(240, 240, 240); transform-origin: 101.09px 304.735px 0px;" id="el40kzyjoqrql" class="animable"></rect><rect x="54.55" y="225.96" width="97.3" height="11.75" style="fill: rgb(230, 230, 230); transform-origin: 103.2px 231.835px 0px;" id="elzozv00p8mc" class="animable"></rect><g id="freepik--coffee-machine--inject-27" style="transform-origin: 103.205px 193.66px 0px;" class="animable"><polygon points="119.74 217.85 86.19 217.85 80.92 185.46 125.02 185.46 119.74 217.85" style="fill: rgb(235, 235, 235); transform-origin: 102.97px 201.655px 0px;" id="elry6iy91jt5" class="animable"></polygon><polygon points="124.89 186.43 113.23 186.46 111.23 217.8 119.74 217.84 124.89 186.43" style="fill: rgb(224, 224, 224); transform-origin: 118.06px 202.135px 0px;" id="elpoqapzrz06e" class="animable"></polygon><rect x="71.01" y="161.23" width="64.51" height="25.2" rx="8.67" style="fill: rgb(235, 235, 235); transform-origin: 103.265px 173.83px 0px;" id="elhsy7ucyhjr" class="animable"></rect><path d="M135.7,171.31v5c0,5.57-4.49,10-11.06,10H112.09c6.58,0,10-4.46,10-10v-5a10.06,10.06,0,0,0-10-10.14h13.56A10.11,10.11,0,0,1,135.7,171.31Z" style="fill: rgb(224, 224, 224); transform-origin: 123.895px 173.74px 0px;" id="elpb56wz1hb48" class="animable"></path><rect x="96.89" y="194.69" width="12.1" height="6.93" style="fill: rgb(224, 224, 224); transform-origin: 102.94px 198.155px 0px;" id="elxuuepcdsq0d" class="animable"></rect><rect x="96.89" y="194.69" width="7.06" height="6.93" style="fill: rgb(245, 245, 245); transform-origin: 100.42px 198.155px 0px;" id="elvqolx77qu18" class="animable"></rect><path d="M135.22,222a4.15,4.15,0,0,1-4.16,4.15H74.87a4.16,4.16,0,0,1,0-8.32h56.19A4.17,4.17,0,0,1,135.22,222Z" style="fill: rgb(224, 224, 224); transform-origin: 102.965px 221.99px 0px;" id="elpyphakrd6mr" class="animable"></path><path d="M113.33,222a4.15,4.15,0,0,1-4.16,4.15H74.87a4.16,4.16,0,0,1,0-8.32h34.3A4.17,4.17,0,0,1,113.33,222Z" style="fill: rgb(235, 235, 235); transform-origin: 92.02px 221.99px 0px;" id="elo9bx5f485yg" class="animable"></path><path d="M109.27,173.88a6.31,6.31,0,0,1-6.3,6.3,6.41,6.41,0,0,1-1.77-.25,6.3,6.3,0,0,1,0-12.1,6.06,6.06,0,0,1,1.77-.25A6.31,6.31,0,0,1,109.27,173.88Z" style="fill: rgb(224, 224, 224); transform-origin: 102.964px 173.88px 0px;" id="el1dm5l64arkwh" class="animable"></path><path d="M105.74,173.88a6.31,6.31,0,0,1-4.54,6.05,6.3,6.3,0,0,1,0-12.1A6.3,6.3,0,0,1,105.74,173.88Z" style="fill: rgb(250, 250, 250); transform-origin: 101.199px 173.88px 0px;" id="elgwl6vx86lge" class="animable"></path><rect x="92.74" y="186.5" width="20.16" height="8.06" style="fill: rgb(224, 224, 224); transform-origin: 102.82px 190.53px 0px;" id="elr6xbl1yuwwc" class="animable"></rect><rect x="92.74" y="186.5" width="13.99" height="8.06" style="fill: rgb(245, 245, 245); transform-origin: 99.735px 190.53px 0px;" id="elth0vtz3aotf" class="animable"></rect><circle cx="116.58" cy="173.85" r="2.65" style="fill: rgb(224, 224, 224); transform-origin: 116.58px 173.85px 0px;" id="elw0u4mxfa1c7" class="animable"></circle><circle cx="125.65" cy="173.85" r="2.65" style="fill: rgb(224, 224, 224); transform-origin: 125.65px 173.85px 0px;" id="elle5j2q4bqlp" class="animable"></circle><circle cx="80.92" cy="173.85" r="2.65" style="fill: rgb(224, 224, 224); transform-origin: 80.92px 173.85px 0px;" id="el72ertaoj9nx" class="animable"></circle><rect x="109.08" y="197.07" width="10.08" height="3.15" style="fill: rgb(250, 250, 250); transform-origin: 114.12px 198.645px 0px;" id="elr9zfmr51djf" class="animable"></rect></g><path d="M112.92,187.41H92.82a.95.95,0,0,1,0-1.89h20.1a.95.95,0,0,1,0,1.89Z" style="fill: rgb(224, 224, 224); transform-origin: 102.87px 186.465px 0px;" id="ele1wztzcvpeq" class="animable"></path><path d="M116.58,177.44a3.59,3.59,0,1,1,3.59-3.59A3.59,3.59,0,0,1,116.58,177.44Zm0-5.29a1.7,1.7,0,1,0,1.7,1.7A1.7,1.7,0,0,0,116.58,172.15Z" style="fill: rgb(250, 250, 250); transform-origin: 116.58px 173.85px 0px;" id="elfxq0x90iov4" class="animable"></path><path d="M125.65,177.44a3.59,3.59,0,1,1,3.59-3.59A3.59,3.59,0,0,1,125.65,177.44Zm0-5.29a1.7,1.7,0,1,0,1.7,1.7A1.7,1.7,0,0,0,125.65,172.15Z" style="fill: rgb(250, 250, 250); transform-origin: 125.65px 173.85px 0px;" id="el7ijculkg43p" class="animable"></path><path d="M80.92,177.44a3.59,3.59,0,1,1,3.59-3.59A3.59,3.59,0,0,1,80.92,177.44Zm0-5.29a1.7,1.7,0,1,0,1.7,1.7A1.7,1.7,0,0,0,80.92,172.15Z" style="fill: rgb(250, 250, 250); transform-origin: 80.9199px 173.85px 0px;" id="ela7sx1yzxe45" class="animable"></path><path d="M102.88,171.84a1,1,0,0,1-.95-.94v-3.15a.95.95,0,1,1,1.89,0v3.15A.94.94,0,0,1,102.88,171.84Z" style="fill: rgb(230, 230, 230); transform-origin: 102.875px 169.271px 0px;" id="el26vnoxzow1a" class="animable"></path><path d="M138.6,377.21H61.08V245.4H138.6Zm-76.52-1H137.6V246.4H62.08Z" style="fill: rgb(230, 230, 230); transform-origin: 99.84px 311.305px 0px;" id="ele3otcegpioj" class="animable"></path><path d="M139.1,377.71H60.58V244.9H139.1Zm-77.52-1H138.1v0Zm1-1H137.1V246.9H62.58Z" style="fill: rgb(250, 250, 250); transform-origin: 99.84px 311.305px 0px;" id="elavxrb44sn9" class="animable"></path><rect x="66.22" y="295.57" width="5.99" height="18.33" style="fill: rgb(224, 224, 224); transform-origin: 69.215px 304.735px 0px;" id="eljw4vouf960l" class="animable"></rect><path d="M421.16,355.14l-.82.1c0-.41-5-41.89,5.22-75.78,10.16-33.69,3.16-55.16,3.09-55.37l.78-.26c.07.21,7.15,21.93-3.09,55.86C416.17,313.42,421.1,354.73,421.16,355.14Z" style="fill: rgb(224, 224, 224); transform-origin: 425.498px 289.535px 0px;" id="el7nyz5t6z9ph" class="animable"></path><path d="M430.1,228.71a12.84,12.84,0,0,0-6.88-4.25l.18-.8a13.67,13.67,0,0,1,7.34,4.52Z" style="fill: rgb(224, 224, 224); transform-origin: 426.98px 226.185px 0px;" id="el4ykno1ppcp" class="animable"></path><g id="elrnl493nukdq"><rect x="431.28" y="232.77" width="2.7" height="0.82" style="fill: rgb(224, 224, 224); transform-origin: 432.63px 233.18px 0px; transform: rotate(-29.46deg);" class="animable" id="elsexvulcnju9"></rect></g><path d="M429.22,251.26A19.59,19.59,0,0,0,418.64,241l.3-.76a20.38,20.38,0,0,1,11,10.7Z" style="fill: rgb(224, 224, 224); transform-origin: 424.29px 245.75px 0px;" id="eltz7fbzxohjh" class="animable"></path><path d="M427,277.18h-.82a11.29,11.29,0,0,0-4.26-8.66l.51-.65A12.13,12.13,0,0,1,427,277.18Z" style="fill: rgb(224, 224, 224); transform-origin: 424.46px 272.525px 0px;" id="elfle8hlqla8p" class="animable"></path><path d="M425.18,283.8l-.77-.3a8.3,8.3,0,0,1,4.68-4.62l.29.77A7.42,7.42,0,0,0,425.18,283.8Z" style="fill: rgb(224, 224, 224); transform-origin: 426.895px 281.34px 0px;" id="elh9vwxkn2riv" class="animable"></path><path d="M419.84,325.84l-.63-.52c1-1.21,1.76-5.81,2.17-8.28.09-.59.18-1.09.24-1.46l.81.16c-.06.35-.15.85-.24,1.43C421.58,320.86,420.9,324.57,419.84,325.84Z" style="fill: rgb(224, 224, 224); transform-origin: 420.82px 320.71px 0px;" id="elfz6om8aqoc9" class="animable"></path><path d="M419.37,339a8.11,8.11,0,0,0-7.86-5.42l0-.82a9,9,0,0,1,8.68,6Z" style="fill: rgb(224, 224, 224); transform-origin: 415.85px 335.879px 0px;" id="elh5f1kveowk6" class="animable"></path><g id="els8oaxyjmx9"><rect x="418.72" y="350.75" width="8.71" height="0.82" style="fill: rgb(224, 224, 224); transform-origin: 423.075px 351.16px 0px; transform: rotate(-48.22deg);" class="animable" id="eltnvhokvvmwj"></rect></g><path d="M429.76,305.32c1.31,4.26-7.86,12.36-7.86,12.36s-12.13-1.52-13.45-5.78,1.76-11.21,7.64-13S428.44,301.07,429.76,305.32Z" style="fill: rgb(240, 240, 240); transform-origin: 419.018px 308.069px 0px;" id="elpbdftejl2" class="animable"></path><path d="M439.93,253.69c-1.16,4.52-9.84,7.73-9.84,7.73s-6.06-7-4.89-11.52,6-9.5,10-8.45S441.09,249.17,439.93,253.69Z" style="fill: rgb(235, 235, 235); transform-origin: 432.659px 251.364px 0px;" id="el8o3kno3pn87" class="animable"></path><path d="M405.09,321.21c5.45,2.13,8.8,11.77,8.8,11.77s-9,4.84-14.44,2.72-11.22-8.11-9.66-12.11S399.64,319.09,405.09,321.21Z" style="fill: rgb(245, 245, 245); transform-origin: 401.711px 328.107px 0px;" id="elulwhtkkdfj" class="animable"></path><path d="M417,268.16a11.73,11.73,0,0,0,3.73,2.11,4,4,0,0,0,4-.94c1.17-1.34.86-3.42.12-5-1.45-3.21-6.83-8.66-10.95-7.1C408,259.45,414.39,266.19,417,268.16Z" style="fill: rgb(230, 230, 230); transform-origin: 418.491px 263.707px 0px;" id="elm5r5v8trsv" class="animable"></path><path d="M429.24,276.34c-.78,1-1.61,2.19-1.19,3.36a2.51,2.51,0,0,0,2.75,1.35,7.39,7.39,0,0,0,2.95-1.44c2.1-1.46,6.41-4.53,3.66-7.39S430.88,274.3,429.24,276.34Z" style="fill: rgb(235, 235, 235); transform-origin: 433.118px 276.225px 0px;" id="elkgf8qj03f8p" class="animable"></path><path d="M411.64,235.56a2.16,2.16,0,0,0-2,1.59c-.18,1,.68,2,1.52,2.61,2.09,1.61,8.37,6,9.77,1.76C422.29,237.56,414.42,235.25,411.64,235.56Z" style="fill: rgb(224, 224, 224); transform-origin: 415.351px 239.424px 0px;" id="elwa3e1vv6vrf" class="animable"></path><path d="M423.21,221.78c-1.29.12-2.58-.35-3.88-.27s-2.74,1.13-2.45,2.4,1.72,1.56,2.92,1.64a23.7,23.7,0,0,0,6.12-.42,1.89,1.89,0,0,0,1.24-.63c.53-.77-.31-1.81-1.2-2.08a13.4,13.4,0,0,1-2.71-.65Z" style="fill: rgb(230, 230, 230); transform-origin: 422.084px 223.548px 0px;" id="elpsdwnfn99hb" class="animable"></path><path d="M435.87,230.69c1.3,0,2.55-.52,3.86-.52s2.8.94,2.6,2.23-1.62,1.67-2.81,1.83a23.81,23.81,0,0,1-6.14,0,1.9,1.9,0,0,1-1.28-.55c-.57-.73.19-1.82,1.07-2.15a13.07,13.07,0,0,0,2.66-.83Z" style="fill: rgb(240, 240, 240); transform-origin: 437.125px 232.299px 0px;" id="elvpqaj7ahfm" class="animable"></path><path d="M434.59,326.49a1.81,1.81,0,0,1,1.1-.55A1.27,1.27,0,0,1,436.8,327a3.55,3.55,0,0,1-.21,1.64c-.88,2.95-10.78,24.31-13.06,20.47-1.34-2.27,2-9.77,2.94-11.9A31,31,0,0,1,434.59,326.49Z" style="fill: rgb(240, 240, 240); transform-origin: 430.019px 337.755px 0px;" id="el52vg33xjv9l" class="animable"></path><path d="M428.67,222.59c.78-1.76,1.63-3.61,3.19-4.74s4.06-1.22,5.2.34c1.27,1.74,0,4.39-1.95,5.32s-4.22.65-6.36.35c0-.32,0-.63-.05-1Z" style="fill: rgb(230, 230, 230); transform-origin: 433.12px 220.578px 0px;" id="elb9xs6xmerw" class="animable"></path><path d="M435.48,383.41h0a81.1,81.1,0,0,1-31.81,0h0l-8.31-36.53h48.43Z" style="fill: rgb(230, 230, 230); transform-origin: 419.575px 365.932px 0px;" id="el1t21lz9x01d" class="animable"></path><g id="elrplvlt59x1m"><circle cx="339.95" cy="131.07" r="64.97" style="fill: rgb(240, 240, 240); transform-origin: 339.95px 131.07px 0px; transform: rotate(-80.78deg);" class="animable" id="elh36397anpcp"></circle></g><path d="M340.13,197.49a66.43,66.43,0,0,1,0-132.86v2.92a63.51,63.51,0,0,0,0,127Z" style="fill: rgb(255, 255, 255); transform-origin: 306.915px 131.06px 0px;" id="elarp3kxu14nu" class="animable"></path><path d="M340.13,197.49v-2.93a63.51,63.51,0,1,0,0-127V64.63a66.43,66.43,0,1,1,0,132.86Z" style="fill: rgb(255, 255, 255); transform-origin: 373.361px 131.06px 0px;" id="elejbl35sfj6i" class="animable"></path><path d="M374.08,131.07h-2.92c0-21.53-10.93-50.33-31.81-63.73l1.57-2.46C362.69,78.84,374.08,108.75,374.08,131.07Z" style="fill: rgb(255, 255, 255); transform-origin: 356.715px 97.975px 0px;" id="elflkqm4etib9" class="animable"></path><path d="M340.92,195.29l-1.57-2.47c20.88-13.39,31.81-42.2,31.81-63.73h2.92C374.08,151.41,362.69,181.32,340.92,195.29Z" style="fill: rgb(255, 255, 255); transform-origin: 356.715px 162.19px 0px;" id="elqown5az768" class="animable"></path><path d="M309.12,131.06h-2.93c0-22.33,11.39-52.23,33.15-66.2l1.58,2.46C320,80.72,309.12,109.53,309.12,131.06Z" style="fill: rgb(255, 255, 255); transform-origin: 323.555px 97.96px 0px;" id="el3x8h1hmy5tk" class="animable"></path><path d="M339.34,195.27c-21.76-14-33.15-43.87-33.15-66.19h2.93c0,21.52,10.92,50.33,31.8,63.73Z" style="fill: rgb(255, 255, 255); transform-origin: 323.555px 162.175px 0px;" id="el6fupjttl857" class="animable"></path><rect x="338.67" y="66.09" width="2.92" height="129.93" style="fill: rgb(255, 255, 255); transform-origin: 340.13px 131.055px 0px;" id="elwifgo5hfh8" class="animable"></rect><rect x="285.15" y="94.99" width="109.98" height="2.92" style="fill: rgb(255, 255, 255); transform-origin: 340.14px 96.45px 0px;" id="elbc648btqg27" class="animable"></rect><rect x="275.2" y="130.7" width="129.87" height="2.92" style="fill: rgb(255, 255, 255); transform-origin: 340.135px 132.16px 0px;" id="elixggzkr2z78" class="animable"></rect><rect x="286.6" y="166.39" width="107.07" height="2.92" style="fill: rgb(255, 255, 255); transform-origin: 340.135px 167.85px 0px;" id="el7b6cg15jtfh" class="animable"></rect></g><g id="freepik--Shadow--inject-27" style="transform-origin: 250px 415.69px 0px;" class="animable"><ellipse id="freepik--path--inject-27" cx="250" cy="415.69" rx="193.89" ry="11.32" style="fill: rgb(245, 245, 245); transform-origin: 250px 415.69px 0px;" class="animable"></ellipse></g><g id="freepik--Character--inject-27" style="transform-origin: 210.434px 277.336px 0px;" class="animable"><path d="M231.25,414.74a4.91,4.91,0,1,0,4.9-4.91,4.9,4.9,0,0,0-4.9,4.91Z" style="fill: rgb(38, 50, 56); transform-origin: 236.16px 414.74px 0px;" id="el3hn41p1aoin" class="animable"></path><path d="M159.14,414.74a4.91,4.91,0,1,1-4.91-4.91,4.91,4.91,0,0,1,4.91,4.91Z" style="fill: rgb(38, 50, 56); transform-origin: 154.23px 414.74px 0px;" id="el70cwpm9uz08" class="animable"></path><path d="M201.67,413.17a4.91,4.91,0,1,1-4.91-4.91,4.91,4.91,0,0,1,4.91,4.91Z" style="fill: rgb(38, 50, 56); transform-origin: 196.76px 413.17px 0px;" id="el9tcsw2qmvv7" class="animable"></path><path d="M143.54,408.15a2.39,2.39,0,0,0,2.42,1.92l51.19-.7,47.95,1.08a2.38,2.38,0,0,0,.53-4.72l-26.18-5.09a44.73,44.73,0,0,0-8.24-.77H183.07a44.51,44.51,0,0,0-8.22.77l-29.43,4.71A2.39,2.39,0,0,0,143.54,408.15Z" style="fill: rgb(38, 50, 56); transform-origin: 195.543px 405.161px 0px;" id="elfhlrd9wufcg" class="animable"></path><rect x="188.45" y="357.16" width="17.41" height="50.13" style="fill: rgb(38, 50, 56); transform-origin: 197.155px 382.225px 0px;" id="el2lxh7u925gu" class="animable"></rect><rect x="190.95" y="325.4" width="12.41" height="32.01" style="fill: rgb(38, 50, 56); transform-origin: 197.155px 341.405px 0px;" id="el4wzr2xsaj6k" class="animable"></rect><g id="elpw0ueyys6s8"><polygon points="203.36 331.33 190.94 334.46 190.94 325.4 203.36 325.4 203.36 331.33" style="opacity: 0.2; isolation: isolate; transform-origin: 197.15px 329.93px 0px;" class="animable" id="el028ofirru0rl"></polygon></g><path d="M142.75,325.27v.12h1.69A11.8,11.8,0,0,1,142.75,325.27Z" style="fill: rgb(38, 50, 56); transform-origin: 143.595px 325.33px 0px;" id="el9dsvkcgzqej" class="animable"></path><path d="M274.35,313.13a21.1,21.1,0,0,0-18.16-10.37H211.3V199.05a1.93,1.93,0,0,0,0-.24l.21,0-1.88-12.59a14.69,14.69,0,0,0-6.85-10.38L188.3,167l-7.58-22.12a6.85,6.85,0,0,0-6.46-4.61H156.14a6.82,6.82,0,0,0-6.69,5.51l-4,20.56-7.86,8.22a14.71,14.71,0,0,0-4.07,9.31l-.74,12.33.13,0a15.07,15.07,0,0,0-.13,2V313.67a11.72,11.72,0,0,0,10,11.6h0a11.76,11.76,0,0,0,1.68.12H267.36a8.1,8.1,0,0,0,7-12.26ZM148.52,185.9c-.09.7-.18,1.4-.27,2.08l-2.2.56h0l-6,1.54.42-6.23.13-1.8,8.36-7.56.37,2.67.17,1.28S149,182.06,148.52,185.9Zm31.06,2-.83-9.89.71-1.74.14-.32.75-1.89,3.92,1.89,6.35,5.41,1.41,7.68Z" style="fill: #1DA1F2; transform-origin: 204.145px 232.83px 0px;" id="elsp9m537xeuf" class="animable"></path><g id="elo2e99wosq2l"><path d="M274.35,313.13a21.1,21.1,0,0,0-18.16-10.37H211.3V199.05a1.93,1.93,0,0,0,0-.24l.21,0-1.88-12.59a14.69,14.69,0,0,0-6.85-10.38L188.3,167l-7.58-22.12a6.85,6.85,0,0,0-6.46-4.61H156.14a6.82,6.82,0,0,0-6.69,5.51l-4,20.56-7.86,8.22a14.71,14.71,0,0,0-4.07,9.31l-.74,12.33.13,0a15.07,15.07,0,0,0-.13,2V313.67a11.72,11.72,0,0,0,10,11.6h0a11.76,11.76,0,0,0,1.68.12H267.36a8.1,8.1,0,0,0,7-12.26ZM148.52,185.9c-.09.7-.18,1.4-.27,2.08l-2.2.56h0l-6,1.54.42-6.23.13-1.8,8.36-7.56.37,2.67.17,1.28S149,182.06,148.52,185.9Zm31.06,2-.83-9.89.71-1.74.14-.32.75-1.89,3.92,1.89,6.35,5.41,1.41,7.68Z" style="opacity: 0.3; transform-origin: 204.145px 232.83px 0px;" class="animable" id="elalmyixy6cqr"></path></g><path d="M199.46,284c13.55-5.72,44-1.95,58.18,2a6.09,6.09,0,0,0,7.35-3.35h0c1.11-2.8-1.24-11.42-4.81-12.42-16.55-4.62-49.14-3-65,3.68-3.42,1.44-4.91,5.07-3.45,7.7h0A6.09,6.09,0,0,0,199.46,284Z" style="fill: #1DA1F2; transform-origin: 228.219px 276.935px 0px;" id="elsukpzkv8y6n" class="animable"></path><g id="eljrb5ct42lfn"><g style="opacity: 0.3; transform-origin: 228.219px 276.935px 0px;" class="animable" id="elgjs52801xuf"><path d="M199.46,284c13.55-5.72,44-1.95,58.18,2a6.09,6.09,0,0,0,7.35-3.35h0c1.11-2.8-1.24-11.42-4.81-12.42-16.55-4.62-49.14-3-65,3.68-3.42,1.44-4.91,5.07-3.45,7.7h0A6.09,6.09,0,0,0,199.46,284Z" style="fill: rgb(255, 255, 255); transform-origin: 228.219px 276.935px 0px;" id="elia7tusz4fc" class="animable"></path></g></g><rect x="232.51" y="279.67" width="6.31" height="26.92" style="fill: rgb(38, 50, 56); transform-origin: 235.665px 293.13px 0px;" id="el0fd8433w5w1o" class="animable"></rect><rect x="232.51" y="279.67" width="6.31" height="45.73" style="fill: rgb(38, 50, 56); transform-origin: 235.665px 302.535px 0px;" id="elujvosxd81an" class="animable"></rect><polygon points="259.41 383.51 260.6 405.02 271.32 404.15 272.34 383.74 259.41 383.51" style="fill: rgb(181, 91, 82); transform-origin: 265.875px 394.265px 0px;" id="el2tuorp1zegp" class="animable"></polygon><path d="M273.19,403.81a.27.27,0,0,1-.21-.19.24.24,0,0,1,.11-.26c.15-.1,3.68-2.35,5.44-1.95a1.3,1.3,0,0,1,.8.54.9.9,0,0,1,.07,1.06c-.4.58-1.73.88-3,.94A17.94,17.94,0,0,1,273.19,403.81Zm.78-.37c1.95.15,4.57,0,5-.69.06-.09.12-.24-.08-.54a.69.69,0,0,0-.5-.32,1.83,1.83,0,0,0-.47,0A11.62,11.62,0,0,0,274,403.44Z" style="fill: #1DA1F2; transform-origin: 276.257px 402.666px 0px;" id="el29s8bp8usgx" class="animable"></path><path d="M273.06,403.8a.22.22,0,0,1-.12-.21c0-.13.15-2.95,1.42-4.1a1.81,1.81,0,0,1,1.35-.49c.68,0,.91.37,1,.65.28,1.16-2.11,3.53-3.33,4.14a.18.18,0,0,1-.1,0A.2.2,0,0,1,273.06,403.8Zm2.51-4.32a1.27,1.27,0,0,0-.84.35,5.72,5.72,0,0,0-1.22,3.25c1.25-.83,2.8-2.67,2.7-3.37,0-.06-.06-.24-.5-.25l-.14,0Z" style="fill: #1DA1F2; transform-origin: 274.836px 401.413px 0px;" id="elfbv07s4ovll" class="animable"></path><path d="M272.06,402.41l-11.34.54a.92.92,0,0,0-.86.76L258.25,413a1.52,1.52,0,0,0,1.23,1.76,1.15,1.15,0,0,0,.32,0c4.09-.26,7.71-.66,12.8-.9,6-.29,4.52.5,11.59.26,4.26-.14,4.8-5,3-5.17-8.31-.64-9.29-3.09-12.62-5.9A3.67,3.67,0,0,0,272.06,402.41Z" style="fill: rgb(38, 50, 56); transform-origin: 273.194px 408.579px 0px;" id="eli3fh2gojqp" class="animable"></path><g id="elcc46jb5plyq"><polygon points="260.24 397.28 271.64 396.51 272.34 382.54 259.41 382.31 260.24 397.28" style="opacity: 0.1; transform-origin: 265.875px 389.795px 0px;" class="animable" id="elj2g0fxvwfid"></polygon></g><g id="el49ety37s03i"><path d="M256,302.83c0,.19.09.39.14.58a55.54,55.54,0,0,0-1.22-7.88c-3.67-14.27-41.86-16.65-57.48-17l-18.78,2.06s-1.75,15,2.72,24.56S256,302.83,256,302.83Z" style="opacity: 0.4; transform-origin: 217.231px 293.7px 0px;" class="animable" id="elaugsx57vmif"></path></g><polygon points="233.82 388.64 234.79 410.5 245.39 410.11 246.64 386.96 233.82 388.64" style="fill: rgb(181, 91, 82); transform-origin: 240.23px 398.73px 0px;" id="el86j340g5l0w" class="animable"></polygon><path d="M247.06,407.15a.24.24,0,0,1-.21-.19.24.24,0,0,1,.09-.26c.15-.11,3.59-2.48,5.36-2.15a1.27,1.27,0,0,1,.83.5.94.94,0,0,1,.11,1.07c-.38.59-1.69.94-3,1.05A18,18,0,0,1,247.06,407.15Zm.77-.4c1.95.07,4.56-.17,5-.88.07-.09.12-.24-.09-.53a.68.68,0,0,0-.51-.31,1.93,1.93,0,0,0-.48,0A11.42,11.42,0,0,0,247.83,406.75Z" style="fill: #1DA1F2; transform-origin: 250.099px 405.875px 0px;" id="ellw4uu3mo7x" class="animable"></path><path d="M246.93,407.15a.26.26,0,0,1-.13-.22c0-.13,0-2.95,1.27-4.15a1.83,1.83,0,0,1,1.33-.53c.68,0,.92.33,1,.61.32,1.15-2,3.61-3.17,4.26a.12.12,0,0,1-.1,0A.25.25,0,0,1,246.93,407.15Zm2.34-4.42a1.28,1.28,0,0,0-.82.38,5.82,5.82,0,0,0-1.1,3.29c1.22-.87,2.7-2.76,2.58-3.46,0-.06-.07-.24-.52-.24l-.14,0Z" style="fill: #1DA1F2; transform-origin: 248.615px 404.704px 0px;" id="elkg9t2i5l3y" class="animable"></path><path d="M245.88,405.79l-11.31,1a.9.9,0,0,0-.83.78l-1.26,9.38a1.52,1.52,0,0,0,1.29,1.72,1.16,1.16,0,0,0,.32,0c4.08-.42,7.68-.95,12.76-1.38,6-.51,4.54.34,11.59-.17,4.25-.3,4.61-5.2,2.79-5.28-8.32-.33-9.39-2.74-12.82-5.42A3.66,3.66,0,0,0,245.88,405.79Z" style="fill: rgb(38, 50, 56); transform-origin: 247.367px 412.222px 0px;" id="elz17qlrtxvaf" class="animable"></path><g id="el9ntlhufzgsi"><polygon points="245.9 400.1 246.5 389.07 233.88 389.35 234.4 400.9 245.9 400.1" style="opacity: 0.1; transform-origin: 240.19px 394.985px 0px;" class="animable" id="el1q5by6zhb94"></polygon></g><path d="M208.36,277.27s66.63-5.1,71.25,12.88S274,392.87,274,392.87l-16.48,1.39s-2.16-50-2.47-91.36c0,0-70.14,11.81-74.62,2.29s-2.72-24.56-2.72-24.56Z" style="fill: #1DA1F2; transform-origin: 229.089px 335.431px 0px;" id="elhyqgrbun9mk" class="animable"></path><path d="M208.36,277.27s66.63-5.1,71.25,12.88S274,392.87,274,392.87l-16.48,1.39s-2.16-50-2.47-91.36c0,0-70.14,11.81-74.62,2.29s-2.72-24.56-2.72-24.56Z" style="fill: rgb(38, 50, 56); transform-origin: 229.089px 335.431px 0px;" id="eluqxelnbj51k" class="animable"></path><g id="elktxzmkmam1g"><path d="M208.36,277.27s66.63-5.1,71.25,12.88S274,392.87,274,392.87l-16.48,1.39s-2.16-50-2.47-91.36c0,0-70.14,11.81-74.62,2.29s-2.72-24.56-2.72-24.56Z" style="opacity: 0.1; transform-origin: 229.089px 335.431px 0px;" class="animable" id="elxj1p69twe6b"></path></g><path d="M191.53,279.89s67.17-2.61,68.09,15.93c.72,14.49-11.52,100.57-11.52,100.57l-15.36,1.19s-2.81-51.72-.89-87c0,0-58,6.65-68.17-1.51-9.74-7.78-2.16-29.26-2.16-29.26Z" style="fill: rgb(38, 50, 56); transform-origin: 209.18px 338.672px 0px;" id="elu9yi7usd9d" class="animable"></path><g id="freepik--group--inject-27" style="transform-origin: 208.264px 208.382px 0px;" class="animable"><path d="M218.24,235.09h0A92.69,92.69,0,0,0,246.5,252l1.67.63.88-4.54L228.73,227.5s-16.86-31.72-26.54-29.95C190.7,199.65,218.24,235.09,218.24,235.09Z" style="fill: #1DA1F2; transform-origin: 224.218px 225.054px 0px;" id="elblzwyb9iik6" class="animable"></path><g id="eliyai08ooalj"><g style="opacity: 0.1; transform-origin: 224.218px 225.054px 0px;" class="animable" id="elesfue2o2aih"><path d="M218.24,235.09h0A92.69,92.69,0,0,0,246.5,252l1.67.63.88-4.54L228.73,227.5s-16.86-31.72-26.54-29.95C190.7,199.65,218.24,235.09,218.24,235.09Z" style="fill: rgb(255, 255, 255); transform-origin: 224.218px 225.054px 0px;" id="elepbynihi927" class="animable"></path></g></g><path d="M248.17,252.65l.88-4.54,12.18-2s11.9,5.89,9.19,7.18H257.27Z" style="fill: rgb(181, 91, 82); transform-origin: 259.496px 249.7px 0px;" id="eleqs44fnjmag" class="animable"></path><path d="M214,278.57h0a95.4,95.4,0,0,1-30.1,3l-21.82-1.29c-.53-4.48-3.88-14.32-8.49-39.67-1.15-12.77-4.73-16.82-.6-36.12a.52.52,0,0,1,0-.11,6.09,6.09,0,0,1,5.17-7h.12c3.22-.54,7.27-1.12,11.26-1.42a214.89,214.89,0,0,1,22.84-.7,66.23,66.23,0,0,1,7.56,1,9.58,9.58,0,0,1,7.6,6.06C211.11,212.53,212.34,237,214,278.57Z" style="fill: #1DA1F2; transform-origin: 182.526px 238.473px 0px;" id="el2rp5fsisf3g" class="animable"></path><path d="M184.39,201.66c-11.29,1-15.62-5.7-15.62-5.7,4.82-5.11,2.5-18.45.59-25.76l6.26,4.88,8.53,6.66a32,32,0,0,0-.43,3.39,14.27,14.27,0,0,0,0,2.45v0l0,.14c.38,3.41,2.27,6.25,7.63,7.35C191.39,195.1,194,200.8,184.39,201.66Z" style="fill: rgb(181, 91, 82); transform-origin: 180.236px 185.981px 0px;" id="el4dbzpo87774" class="animable"></path><path d="M171.62,181.61a14.45,14.45,0,0,0-5.5-4c-1.78-.72-3.69-1.09-5.47-1.8a7.49,7.49,0,0,1-4.28-3.63,5,5,0,0,1,.43-4.65,8.77,8.77,0,0,1-3.55-3.21c-.75-1.46-.4-3.6,1.11-4.22a8.48,8.48,0,0,1-1.47-7.26,7.33,7.33,0,0,1,5-4.65,4.83,4.83,0,0,0,3.33-2.78c.52-1.39.54-2.93,1.16-4.28a5.18,5.18,0,0,1,8-1.81,6.11,6.11,0,0,1,2.87-3.7,5,5,0,0,1,4.74,0,4.14,4.14,0,0,1,2.12,4.13,2.86,2.86,0,0,1,3.43-1.15,5.13,5.13,0,0,1,2.84,2.62,24.9,24.9,0,0,1,1.36,3.71,8.34,8.34,0,0,0,1.92,3.42,5.12,5.12,0,0,0,5.7.87,2.67,2.67,0,0,1-.35,3,2.62,2.62,0,0,1-2.86.84,4.26,4.26,0,0,1-2,6.33c-3.41-.59-6.7,1.62-8.29,4.69s-2.07,6.6-3.28,9.85S175,180.93,171.62,181.61Z" style="fill: rgb(38, 50, 56); transform-origin: 174.145px 158.316px 0px;" id="eliegrjx85wb" class="animable"></path><g id="elpxei5k2nm"><path d="M184.15,181.74a32,32,0,0,0-.43,3.39,14.27,14.27,0,0,0,0,2.45v0l0,.14c-3.12-.56-7.31-3.7-7.87-6.87a14.44,14.44,0,0,1-.22-3.15Z" style="opacity: 0.2; isolation: isolate; transform-origin: 179.884px 182.71px 0px;" class="animable" id="elhc9sv9vzcv"></path></g><path d="M166.43,195.19l3.45-1.39a34.59,34.59,0,0,0,13.75,7.89,13.26,13.26,0,0,0-4.7,6.15C166.75,204.11,166.43,195.19,166.43,195.19Z" style="fill: rgb(255, 255, 255); transform-origin: 175.03px 200.82px 0px;" id="el8hf468nqjrj" class="animable"></path><path d="M191.33,194.46l-3.27-.58s-1.11,6.8-4.42,7.86c5.9,2.08,7,4.94,7,4.94C198.91,203.71,191.33,194.46,191.33,194.46Z" style="fill: rgb(255, 255, 255); transform-origin: 189.072px 200.28px 0px;" id="elnj61ohqfg3" class="animable"></path><path d="M162.59,159.05a13.17,13.17,0,0,1,13.08-13.25c10.61-.33,18.3,12.44,20.23,21.36a13,13,0,0,1-17.39,15.09c-6.84-2.58-9.25-7.92-14.13-16.65A13.13,13.13,0,0,1,162.59,159.05Z" style="fill: rgb(181, 91, 82); transform-origin: 179.419px 164.469px 0px;" id="elpiywkevy63e" class="animable"></path><path d="M159.65,158.61A9.62,9.62,0,0,0,170,168.32a4.46,4.46,0,0,0,2.68-1,6.09,6.09,0,0,1-4.07-2.14,5.83,5.83,0,0,1-1.47-4.27,4.27,4.27,0,0,0,3.35-1.84,4.32,4.32,0,0,0,.39-3.83,20.88,20.88,0,0,1,1-4.81,6.34,6.34,0,0,1,2.51-3.38,3.83,3.83,0,0,1,4.07-.05,22.31,22.31,0,0,1,1.83,1.81c.65.56,6.36-3-1.27-5.65a14.43,14.43,0,0,0-13.33,2.51C162,148.6,159.71,153.91,159.65,158.61Z" style="fill: rgb(38, 50, 56); transform-origin: 171.3px 155.425px 0px;" id="elbxq8p8q6em8" class="animable"></path><path d="M191.34,169.06s-2.73.16-9.85,2.45c1.51,2.13,3.62,3.56,7.27,2.39a3.74,3.74,0,0,0,2.66-4.5C191.4,169.29,191.37,169.17,191.34,169.06Z" style="fill: rgb(38, 50, 56); transform-origin: 186.509px 171.69px 0px;" id="elauwj8f008qh" class="animable"></path><path d="M186.53,172.52a6.38,6.38,0,0,1,4.31-.1,4,4,0,0,1-2.07,1.45,6.38,6.38,0,0,1-4.31.1A3.86,3.86,0,0,1,186.53,172.52Z" style="fill: rgb(232, 63, 63); transform-origin: 187.65px 173.195px 0px;" id="elsjro579u6a" class="animable"></path><path d="M191,169.1a1.72,1.72,0,0,1-.78,1.54,36.12,36.12,0,0,1-6.49,1.41,2.07,2.07,0,0,1-1.93-.67A56.22,56.22,0,0,1,191,169.1Z" style="fill: rgb(255, 255, 255); transform-origin: 186.401px 170.592px 0px;" id="elfny1p8z7vrp" class="animable"></path><g id="elrne6whwnw5"><path d="M188.63,166.79a4.61,4.61,0,0,0,3.19-2.2,29.46,29.46,0,0,1-6.56-4.68Z" style="opacity: 0.2; isolation: isolate; transform-origin: 188.54px 163.35px 0px;" class="animable" id="eljypls2f7od"></path></g><path d="M165,167.87c2.3-1,5.64,1.32,7.23,3.24,1.76,2.14,1.56,4.64-1.13,4.72a9.45,9.45,0,0,1-5.9-2.24C163.16,171.82,162.75,168.86,165,167.87Z" style="fill: rgb(181, 91, 82); transform-origin: 168.427px 171.73px 0px;" id="elytzvgko0ow" class="animable"></path><path d="M179.68,161.2c.48-.21,1.2.28,1.51,1s.21,1.43-.27,1.65-1.11-.24-1.52-.94S179.19,161.41,179.68,161.2Z" style="fill: rgb(38, 50, 56); transform-origin: 180.273px 162.528px 0px;" id="elqaujfs6omjc" class="animable"></path><path d="M187.82,157.09c.49-.2,1.17.21,1.52.94s.25,1.51-.24,1.72-1.17-.22-1.52-.95S187.34,157.3,187.82,157.09Z" style="fill: rgb(38, 50, 56); transform-origin: 188.461px 158.421px 0px;" id="elzmk4mizzn8q" class="animable"></path><path d="M185.15,154.59a.53.53,0,0,0,.46,0,4,4,0,0,1,3.49-.42.46.46,0,0,0,.62-.21v0a.48.48,0,0,0-.24-.63h0a4.93,4.93,0,0,0-4.37.46.49.49,0,0,0-.16.66A.58.58,0,0,0,185.15,154.59Z" style="fill: rgb(38, 50, 56); transform-origin: 187.322px 153.831px 0px;" id="el7kppi4ibwrs" class="animable"></path><path d="M176.71,160.74a.48.48,0,0,0,.35-.28,4.06,4.06,0,0,1,2.51-2.48.46.46,0,0,0,.35-.55v0a.47.47,0,0,0-.57-.35h0a4.92,4.92,0,0,0-3.16,3.05.48.48,0,0,0,.28.62A.53.53,0,0,0,176.71,160.74Z" style="fill: rgb(38, 50, 56); transform-origin: 178.045px 158.913px 0px;" id="elu0fxaodu4oq" class="animable"></path><path d="M163.84,223.18l1.26-2.66c1.65-3.5,8.6-17.44,12-18.91l1.24-.79L183,208c-.81.69-9.7,23.64-11.82,28.44a18,18,0,0,0-.83,2.26C168.94,244,160,252,154,236.89c-1.49-3.19-2.86-6.33-4.09-9.5-.63-1.65-1.2-3.2-1.77-4.83-.1-.29-.31-.88-.58-1.67-2.77-7.91-3.24-17,4.31-21.63l5.08-1.71Z" style="fill: #1DA1F2; transform-origin: 164.353px 221.582px 0px;" id="elz3px0vr9uq" class="animable"></path><g id="ela7f0ue6i3nh"><g style="opacity: 0.1; transform-origin: 164.353px 221.582px 0px;" class="animable" id="elb0amv09c6u9"><path d="M163.84,223.18l1.26-2.66c1.65-3.5,8.6-17.44,12-18.91l1.24-.79L183,208c-.81.69-9.7,23.64-11.82,28.44a18,18,0,0,0-.83,2.26C168.94,244,160,252,154,236.89c-1.49-3.19-2.86-6.33-4.09-9.5-.63-1.65-1.2-3.2-1.77-4.83-.1-.29-.31-.88-.58-1.67-2.77-7.91-3.24-17,4.31-21.63l5.08-1.71Z" style="fill: rgb(255, 255, 255); transform-origin: 164.353px 221.582px 0px;" id="elbyfxqfa2pjv" class="animable"></path></g></g><path d="M190.64,195.65a5.09,5.09,0,0,0,.23,1,7.64,7.64,0,0,0,.59,1.38,6.87,6.87,0,0,0,1.24,1.55l.33.29a6.66,6.66,0,0,0,.95.73,6,6,0,0,0,2.11,1,.44.44,0,0,1,.32.26c.09.19.21.36.31.53s.17.31.24.46a1.08,1.08,0,0,0,.46.55,3.83,3.83,0,0,0,1.3.47,13.84,13.84,0,0,0,3.63.27,16.83,16.83,0,0,0,1.88-.17,13.57,13.57,0,0,0,2-.43,5.46,5.46,0,0,0,1.49-.64,1,1,0,0,0,.45-.48c.05-.12.06-.22.12-.34l.4-1c.2-.49.36-1,.51-1.5a13.22,13.22,0,0,0,.42-1.49c.1-.52.22-1,.3-1.56.13-.88.23-1.76.33-2.65,0-.42,0-.9,0-1.32a3.44,3.44,0,0,0-.11-1,1.52,1.52,0,0,0-.36-.61,4.77,4.77,0,0,0-1.65-1.08,8.06,8.06,0,0,0-1.81-.48c-.26,0-.51-.1-.77-.13a19.16,19.16,0,0,0-8.14.61,12.54,12.54,0,0,0-1.55.57,6.26,6.26,0,0,0-1.22.8,2.79,2.79,0,0,0-.7.83,1.87,1.87,0,0,0-.13.4c0,.16,0,.17-.2.14a2.45,2.45,0,0,0-2.34.74,2.64,2.64,0,0,0-.49.94A3.25,3.25,0,0,0,190.64,195.65Zm6.71-2.08a7.31,7.31,0,0,1-1.6-.45,1,1,0,0,1-.35-.19,2.13,2.13,0,0,1,.68-.81,4.6,4.6,0,0,1,.6-.37,6.53,6.53,0,0,1,1.13-.46,14.9,14.9,0,0,1,1.84-.44,18,18,0,0,1,1.8-.22c.56,0,1-.06,1.58-.06a18.86,18.86,0,0,1,2.12.14,9.56,9.56,0,0,1,2.1.49,3.57,3.57,0,0,1,1.52,1l-.05,0-.15.11a4,4,0,0,1-.44.27,8.19,8.19,0,0,1-1.81.67l-.43.1-.24.06a13.84,13.84,0,0,1-1.41.24,10.4,10.4,0,0,1-1.38.14l-1.07.08h-.31c-.48,0-.95,0-1.43,0s-.84,0-1.26,0A14.37,14.37,0,0,1,197.35,193.57Zm-4.52,1.64a1,1,0,0,1,.81-.81l.31,0c.12.69.29,1.34.44,2,.19.87.46,1.71.73,2.55a4.54,4.54,0,0,0,.54,1.18l-.5-.38a8.94,8.94,0,0,1-2.21-3A2.45,2.45,0,0,1,192.83,195.21Z" style="fill: rgb(255, 255, 255); transform-origin: 200.437px 196.618px 0px;" id="elovo948ez54o" class="animable"></path><g id="el519i5391not"><path d="M194.91,193.3c1.08.89,3.43,1.33,7.27,1.11s6.13-.93,7.09-1.93a1.52,1.52,0,0,0-.19-2.12,5.36,5.36,0,0,0-.92-.48,8.06,8.06,0,0,0-1.81-.48l-.77-.14a19.18,19.18,0,0,0-8.14.63,12.48,12.48,0,0,0-1.55.56,7,7,0,0,0-.75.44h0A1.55,1.55,0,0,0,194.91,193.3Zm.48-.37a2.06,2.06,0,0,1,.68-.81,4.6,4.6,0,0,1,.6-.37,6.32,6.32,0,0,1,1.14-.46,15.74,15.74,0,0,1,1.83-.44,18,18,0,0,1,1.8-.22,13.83,13.83,0,0,1,1.58,0,16.64,16.64,0,0,1,2.12.13,9.93,9.93,0,0,1,2.09.49,3.45,3.45,0,0,1,1.52,1l0,0-.16.12a3.78,3.78,0,0,1-.43.26,8.58,8.58,0,0,1-1.81.67l-.44.11-.24.05c-.46.1-.93.18-1.4.25s-.92.11-1.39.14-.71.06-1.07.07h-.32c-.47,0-.94,0-1.42,0s-.84,0-1.26-.06a14.56,14.56,0,0,1-1.45-.23,7.39,7.39,0,0,1-1.59-.45A1,1,0,0,1,195.39,192.93Z" style="fill: rgb(255, 255, 255); opacity: 0.7; transform-origin: 202.026px 191.773px 0px;" class="animable" id="elrzkt0aw69hg"></path></g><path d="M195.41,192.92a2.07,2.07,0,0,1,.68-.8,4.6,4.6,0,0,1,.6-.37,7,7,0,0,1,1.14-.46,16.25,16.25,0,0,1,1.83-.44c.61-.11,1.19-.17,1.8-.22a14,14,0,0,1,1.58,0,16.53,16.53,0,0,1,2.12.13,9.56,9.56,0,0,1,2.1.49,3.47,3.47,0,0,1,1.52,1l0,0-.16.13a3.07,3.07,0,0,1-.43.26,8.94,8.94,0,0,1-1.81.67l-.44.11-.24.05c-.46.1-.93.18-1.4.25s-.92.11-1.38.14-.72.05-1.08.07h-.31c-.48,0-1,0-1.42,0s-.85,0-1.26-.06a14.11,14.11,0,0,1-1.45-.23,7.23,7.23,0,0,1-1.59-.45A.86.86,0,0,1,195.41,192.92Z" style="fill: none; transform-origin: 202.095px 192.269px 0px;" id="el0dnldmyhy878" class="animable"></path><path d="M195.41,192.92a2.07,2.07,0,0,1,.68-.8,4.6,4.6,0,0,1,.6-.37,7,7,0,0,1,1.14-.46,16.25,16.25,0,0,1,1.83-.44c.61-.11,1.19-.17,1.8-.22a14,14,0,0,1,1.58,0,16.53,16.53,0,0,1,2.12.13,9.56,9.56,0,0,1,2.1.49,3.47,3.47,0,0,1,1.52,1l0,0-.16.13a3.07,3.07,0,0,1-.43.26,8.94,8.94,0,0,1-1.81.67l-.44.11-.24.05c-.46.1-.93.18-1.4.25s-.92.11-1.38.14-.72.05-1.08.07h-.31c-.48,0-1,0-1.42,0s-.85,0-1.26-.06a14.11,14.11,0,0,1-1.45-.23,7.23,7.23,0,0,1-1.59-.45A.86.86,0,0,1,195.41,192.92Z" style="fill: none; transform-origin: 202.095px 192.269px 0px;" id="elyqz3udebtwg" class="animable"></path><path d="M195.4,192.93a1,1,0,0,0,.35.19,7.31,7.31,0,0,0,1.6.45,14.37,14.37,0,0,0,1.44.23c.42,0,.84,0,1.26,0s.95,0,1.43,0h.31l1.07-.08a10.4,10.4,0,0,0,1.38-.14,13.84,13.84,0,0,0,1.41-.24l.24-.06.43-.1a8.19,8.19,0,0,0,1.81-.67,4,4,0,0,0,.44-.27l.15-.11.05,0a3.57,3.57,0,0,0-1.52-1,9.56,9.56,0,0,0-2.1-.49,18.86,18.86,0,0,0-2.12-.14c-.57,0-1,0-1.58.06a18,18,0,0,0-1.8.22,14.9,14.9,0,0,0-1.84.44,6.53,6.53,0,0,0-1.13.46,4.6,4.6,0,0,0-.6.37A2.13,2.13,0,0,0,195.4,192.93Z" style="fill: rgb(38, 50, 56); transform-origin: 202.085px 192.15px 0px;" id="elxn2w1xu8bj" class="animable"></path><g id="eloksg2a2lcd"><path d="M195.35,191.74a2.75,2.75,0,0,1,.42-.42,10.38,10.38,0,0,1,4.79-1.68,14.75,14.75,0,0,1,2.89-.15,11.08,11.08,0,0,1,4.81,1.12,2.94,2.94,0,0,1,.46.36.85.85,0,0,1,.08,1.15,1.22,1.22,0,0,1-.17.15h0c-1.48-1.45-5.35-1.5-6.63-1.48s-5.1.62-6.41,2.22h0a.76.76,0,0,1-.19-.12A.86.86,0,0,1,195.35,191.74Z" style="opacity: 0.3; transform-origin: 202.07px 191.242px 0px;" class="animable" id="el60upq5w5ycy"></path></g><path d="M193.41,196.82l.84,4.11L191.71,204a18,18,0,0,1-8.67,4,4.22,4.22,0,0,1-4.26-2.29l-.41-.79a5,5,0,0,1-.4-1.12c-.51-2.12.21-3.32,2-4.56l6.19-5.44c.46-.33,7.52-1,7.52-1C194.44,192.82,193.56,196.06,193.41,196.82Z" style="fill: rgb(181, 91, 82); transform-origin: 186.03px 200.415px 0px;" id="elbhmmgwlohyi" class="animable"></path></g><rect x="174" y="279.67" width="6.31" height="26.92" style="fill: rgb(38, 50, 56); transform-origin: 177.155px 293.13px 0px;" id="el7u000q9s57s" class="animable"></rect><rect x="174" y="279.67" width="6.31" height="45.73" style="fill: #1DA1F2; transform-origin: 177.155px 302.535px 0px;" id="el22hd7e0bhfj" class="animable"></rect><g id="elwbwdln6t43i"><rect x="174" y="279.67" width="6.31" height="45.73" style="fill: rgb(255, 255, 255); opacity: 0.5; transform-origin: 177.155px 302.535px 0px;" class="animable" id="eledu9090kucf"></rect></g><path d="M141,284c13.55-5.72,44-1.95,58.18,2a6.09,6.09,0,0,0,7.35-3.35h0c1.11-2.8-1.24-11.42-4.81-12.42-16.55-4.62-49.15-3-65,3.68-3.42,1.44-4.91,5.07-3.46,7.7h0A6.11,6.11,0,0,0,141,284Z" style="fill: #1DA1F2; transform-origin: 169.757px 276.935px 0px;" id="elg4s5s1q4teb" class="animable"></path><g id="el2agositubi7"><g style="opacity: 0.3; transform-origin: 169.757px 276.935px 0px;" class="animable" id="elhxutykmflf9"><path d="M141,284c13.55-5.72,44-1.95,58.18,2a6.09,6.09,0,0,0,7.35-3.35h0c1.11-2.8-1.24-11.42-4.81-12.42-16.55-4.62-49.15-3-65,3.68-3.42,1.44-4.91,5.07-3.46,7.7h0A6.11,6.11,0,0,0,141,284Z" style="fill: rgb(255, 255, 255); transform-origin: 169.757px 276.935px 0px;" id="elkmf8sgj5f37" class="animable"></path></g></g></g><g id="freepik--Browser--inject-27" style="transform-origin: 280.082px 131.055px 0px;" class="animable"><path d="M353.89,140.32H223.77a1.88,1.88,0,0,1-1.88-2l1.29-14.75a1.89,1.89,0,0,1,1.88-1.73H355.18a1.9,1.9,0,0,1,1.89,2.06l-1.3,14.75A1.88,1.88,0,0,1,353.89,140.32Z" style="fill: #1DA1F2; transform-origin: 289.481px 131.08px 0px;" id="el7t0sbos43ln" class="animable"></path><g id="elcrpk8rohrvr"><path d="M353.89,140.32H223.77a1.88,1.88,0,0,1-1.88-2l1.29-14.75a1.89,1.89,0,0,1,1.88-1.73H355.18a1.9,1.9,0,0,1,1.89,2.06l-1.3,14.75A1.88,1.88,0,0,1,353.89,140.32Z" style="fill: rgb(255, 255, 255); opacity: 0.5; transform-origin: 289.481px 131.08px 0px;" class="animable" id="elrfwdif0b32"></path></g><text transform="translate(227.62 135.03)" style="font-size:12px;fill:#fff;font-family:Montserrat-SemiBoldItalic, Montserrat;font-weight:600;font-style:italic">H<tspan x="9.72" y="0" style="letter-spacing:-0.012939453125em">t</tspan><tspan x="14.65" y="0">tps</tspan><tspan x="34.15" y="0" style="letter-spacing:0.050008138020833336em">:</tspan><tspan x="37.68" y="0" style="letter-spacing:-0.06998697916666667em">/</tspan><tspan x="41.29" y="0" style="letter-spacing:-0.029988606770833332em">/</tspan><tspan x="45.38" y="0" style="letter-spacing:-0.009969075520833334em">ww</tspan><tspan x="67.27" y="0" style="letter-spacing:-0.032999674479166664em">w</tspan><tspan x="77.94" y="0">...</tspan></text><path d="M209.32,135.49a6.12,6.12,0,0,1-6.2-6.75,7.26,7.26,0,0,1,7.11-6.48,6.13,6.13,0,0,1,6.21,6.75h0A7.27,7.27,0,0,1,209.32,135.49Zm.91-10.23A4.22,4.22,0,0,0,206.1,129a3.18,3.18,0,0,0,.8,2.46,3.21,3.21,0,0,0,2.42,1,4.22,4.22,0,0,0,4.13-3.75h0a3.17,3.17,0,0,0-.8-2.46A3.21,3.21,0,0,0,210.23,125.26Zm4.71,3.61h0Z" style="fill: #1DA1F2; transform-origin: 209.779px 128.875px 0px;" id="elfy2iphri6xg" class="animable"></path><path d="M216.6,140.23a1.53,1.53,0,0,1-1.22-.62l-4-5.51a1.5,1.5,0,1,1,2.42-1.77l4,5.51a1.5,1.5,0,0,1-.33,2.1A1.54,1.54,0,0,1,216.6,140.23Z" style="fill: #1DA1F2; transform-origin: 214.574px 135.952px 0px;" id="elcq0aez8qcsg" class="animable"></path><g id="elurq7qnyntib"><g style="opacity: 0.5; transform-origin: 210.589px 131.244px 0px;" class="animable" id="elsrqhxu5zanr"><path d="M209.32,135.49a6.18,6.18,0,0,1-4.63-2,6.12,6.12,0,0,1-1.57-4.75,7.26,7.26,0,0,1,7.11-6.48,6.13,6.13,0,0,1,6.21,6.75h0A7.27,7.27,0,0,1,209.32,135.49Zm.91-10.23A4.22,4.22,0,0,0,206.1,129a3.18,3.18,0,0,0,.8,2.46,3.21,3.21,0,0,0,2.42,1,4.22,4.22,0,0,0,4.13-3.75h0a3.17,3.17,0,0,0-.8-2.46A3.21,3.21,0,0,0,210.23,125.26Zm4.71,3.61h0Z" style="fill: rgb(255, 255, 255); transform-origin: 209.78px 128.875px 0px;" id="ello4gviidxyd" class="animable"></path><path d="M216.6,140.23a1.53,1.53,0,0,1-1.22-.62l-4-5.51a1.5,1.5,0,1,1,2.42-1.77l4,5.51a1.5,1.5,0,0,1-.33,2.1A1.54,1.54,0,0,1,216.6,140.23Z" style="fill: rgb(255, 255, 255); transform-origin: 214.574px 135.952px 0px;" id="ela2bpbyc1ykn" class="animable"></path></g></g><g id="elvfb85s4uy0q"><path d="M357,123.33a1.74,1.74,0,0,0-.61-.11H226.32a1.9,1.9,0,0,0-1.89,1.73l-1.29,14.75a2.15,2.15,0,0,0,0,.51,1.86,1.86,0,0,1-1.28-1.94l1.29-14.75a1.89,1.89,0,0,1,1.88-1.73H355.18A1.89,1.89,0,0,1,357,123.33Z" style="opacity: 0.1; transform-origin: 289.426px 131px 0px;" class="animable" id="eln100o6o64gi"></path></g></g><g id="freepik--Desk--inject-27" style="transform-origin: 246.279px 292.605px 0px;" class="animable"><polygon points="161.85 265.81 149.06 419.93 152.94 419.93 173.91 265.81 161.85 265.81" style="fill: #1DA1F2; transform-origin: 161.485px 342.87px 0px;" id="el1crp3r1gdi9" class="animable"></polygon><polygon points="304.12 265.81 325.09 419.93 328.97 419.93 316.18 265.81 304.12 265.81" style="fill: #1DA1F2; transform-origin: 316.545px 342.87px 0px;" id="elng8npz1rn6s" class="animable"></polygon><polygon points="173.67 420.05 177.55 420.05 200.22 265.81 188.16 265.81 173.67 420.05" style="fill: #1DA1F2; transform-origin: 186.945px 342.93px 0px;" id="el96awdb7n8h9" class="animable"></polygon><polygon points="340.94 265.81 328.87 265.81 352.02 420.05 355.9 420.05 340.94 265.81" style="fill: #1DA1F2; transform-origin: 342.385px 342.93px 0px;" id="el96xaeyukeui" class="animable"></polygon><path d="M352.06,263.38a3.8,3.8,0,0,0-3.91-3.68H140.54a3.69,3.69,0,1,0,0,7.37H348.15A3.8,3.8,0,0,0,352.06,263.38Z" style="fill: #1DA1F2; transform-origin: 244.359px 263.385px 0px;" id="el7g7pxfk1bk" class="animable"></path><g id="elh86f5frk48"><path d="M352,420.05h3.88l-14.84-153h7.09a3.69,3.69,0,1,0,0-7.37H140.54a3.69,3.69,0,1,0,0,7.37h21.2L149.06,419.93h3.88l20.8-152.86H188l-14.37,153h3.88l22.49-153H304.29l20.8,152.86H329L316.29,267.07h12.77Z" style="fill: rgb(255, 255, 255); opacity: 0.5; transform-origin: 246.269px 339.873px 0px;" class="animable" id="elpn6kjxlteu"></path></g><path d="M263.31,256.8H266a.51.51,0,0,0,.51-.51v-2.83A.51.51,0,0,0,266,253h-1.93a.5.5,0,0,0-.49.38l-.76,2.83A.51.51,0,0,0,263.31,256.8Z" style="fill: #1DA1F2; transform-origin: 264.662px 254.9px 0px;" id="elmzqt0uomfcb" class="animable"></path><path d="M259.6,256.8h2.68a.5.5,0,0,0,.51-.51v-2.83a.51.51,0,0,0-.51-.51h-1.92a.51.51,0,0,0-.5.38l-.75,2.83A.51.51,0,0,0,259.6,256.8Z" style="fill: #1DA1F2; transform-origin: 260.942px 254.875px 0px;" id="elbnuldklxpc6" class="animable"></path><path d="M255.9,256.8h2.68a.51.51,0,0,0,.51-.51v-2.83a.51.51,0,0,0-.51-.51h-1.92a.51.51,0,0,0-.5.38l-.75,2.83A.51.51,0,0,0,255.9,256.8Z" style="fill: #1DA1F2; transform-origin: 257.242px 254.875px 0px;" id="el4x26zxoqgca" class="animable"></path><path d="M252.2,256.8h2.68a.51.51,0,0,0,.51-.51v-2.83a.51.51,0,0,0-.51-.51H253a.5.5,0,0,0-.49.38l-.76,2.83A.51.51,0,0,0,252.2,256.8Z" style="fill: #1DA1F2; transform-origin: 253.561px 254.875px 0px;" id="elpeafh905rzp" class="animable"></path><path d="M248.5,256.8h2.68a.51.51,0,0,0,.51-.51v-2.83a.51.51,0,0,0-.51-.51h-1.93a.5.5,0,0,0-.49.38l-.76,2.83A.51.51,0,0,0,248.5,256.8Z" style="fill: #1DA1F2; transform-origin: 249.837px 254.875px 0px;" id="elhwj0f0e4l6p" class="animable"></path><path d="M244.79,256.8h2.68a.5.5,0,0,0,.51-.51v-2.83a.51.51,0,0,0-.51-.51h-1.92a.5.5,0,0,0-.49.38l-.76,2.83A.51.51,0,0,0,244.79,256.8Z" style="fill: #1DA1F2; transform-origin: 246.132px 254.875px 0px;" id="elmlh8ippljho" class="animable"></path><path d="M241.09,256.8h2.68a.51.51,0,0,0,.51-.51v-2.83a.51.51,0,0,0-.51-.51h-1.92a.51.51,0,0,0-.5.38l-.75,2.83A.51.51,0,0,0,241.09,256.8Z" style="fill: #1DA1F2; transform-origin: 242.432px 254.875px 0px;" id="elojnshxnpg1p" class="animable"></path><path d="M237.39,256.8h2.68a.51.51,0,0,0,.51-.51v-2.83a.51.51,0,0,0-.51-.51h-1.92a.5.5,0,0,0-.5.38l-.75,2.83A.5.5,0,0,0,237.39,256.8Z" style="fill: #1DA1F2; transform-origin: 238.73px 254.875px 0px;" id="el3sjvdf17zyx" class="animable"></path><path d="M233.69,256.8h2.68a.51.51,0,0,0,.51-.51v-2.83a.51.51,0,0,0-.51-.51h-1.93a.5.5,0,0,0-.49.38l-.76,2.83A.51.51,0,0,0,233.69,256.8Z" style="fill: #1DA1F2; transform-origin: 235.027px 254.875px 0px;" id="eljm7pd6sp8kn" class="animable"></path><path d="M230,256.8h2.68a.51.51,0,0,0,.52-.51v-2.83a.51.51,0,0,0-.52-.51h-1.92a.5.5,0,0,0-.49.38l-.76,2.83A.51.51,0,0,0,230,256.8Z" style="fill: #1DA1F2; transform-origin: 231.347px 254.875px 0px;" id="elcubkils2599" class="animable"></path><path d="M226.28,256.8H229a.51.51,0,0,0,.51-.51v-2.83A.51.51,0,0,0,229,253H227a.51.51,0,0,0-.5.38l-.75,2.83A.51.51,0,0,0,226.28,256.8Z" style="fill: #1DA1F2; transform-origin: 227.627px 254.9px 0px;" id="el6mby9linbt" class="animable"></path><path d="M222.58,256.8h2.68a.51.51,0,0,0,.51-.51v-2.83a.51.51,0,0,0-.51-.51h-1.92a.5.5,0,0,0-.5.38l-.75,2.83A.5.5,0,0,0,222.58,256.8Z" style="fill: #1DA1F2; transform-origin: 223.92px 254.875px 0px;" id="eleal3b66mb6i" class="animable"></path><path d="M218.88,256.8h2.68a.51.51,0,0,0,.51-.51v-2.83a.51.51,0,0,0-.51-.51h-1.93a.5.5,0,0,0-.49.38l-.76,2.83A.51.51,0,0,0,218.88,256.8Z" style="fill: #1DA1F2; transform-origin: 220.217px 254.875px 0px;" id="elo5msoxx9yj" class="animable"></path><path d="M215.18,256.8h2.67a.51.51,0,0,0,.52-.51v-2.83a.51.51,0,0,0-.52-.51h-1.92a.5.5,0,0,0-.49.38l-.76,2.83A.51.51,0,0,0,215.18,256.8Z" style="fill: #1DA1F2; transform-origin: 216.517px 254.875px 0px;" id="elwk6ou4vzyqk" class="animable"></path><path d="M211.47,256.8h2.68a.51.51,0,0,0,.51-.51v-2.83a.51.51,0,0,0-.51-.51h-1.92a.51.51,0,0,0-.5.38l-.75,2.83A.51.51,0,0,0,211.47,256.8Z" style="fill: #1DA1F2; transform-origin: 212.812px 254.875px 0px;" id="elcqi3rvukttc" class="animable"></path><g id="el1zo8n07h86"><g style="opacity: 0.6; transform-origin: 238.737px 254.875px 0px;" class="animable" id="elljq1nxh7dpj"><path d="M263.31,256.8H266a.51.51,0,0,0,.51-.51v-2.83A.51.51,0,0,0,266,253h-1.93a.5.5,0,0,0-.49.38l-.76,2.83A.51.51,0,0,0,263.31,256.8Z" style="fill: rgb(255, 255, 255); transform-origin: 264.662px 254.9px 0px;" id="elm33w7o4qeb8" class="animable"></path><path d="M259.6,256.8h2.68a.5.5,0,0,0,.51-.51v-2.83a.51.51,0,0,0-.51-.51h-1.92a.51.51,0,0,0-.5.38l-.75,2.83A.51.51,0,0,0,259.6,256.8Z" style="fill: rgb(255, 255, 255); transform-origin: 260.942px 254.875px 0px;" id="elz5vc2wzypxo" class="animable"></path><path d="M255.9,256.8h2.68a.51.51,0,0,0,.51-.51v-2.83a.51.51,0,0,0-.51-.51h-1.92a.51.51,0,0,0-.5.38l-.75,2.83A.51.51,0,0,0,255.9,256.8Z" style="fill: rgb(255, 255, 255); transform-origin: 257.242px 254.875px 0px;" id="el9livmvkoa3k" class="animable"></path><path d="M252.2,256.8h2.68a.51.51,0,0,0,.51-.51v-2.83a.51.51,0,0,0-.51-.51H253a.5.5,0,0,0-.49.38l-.76,2.83A.51.51,0,0,0,252.2,256.8Z" style="fill: rgb(255, 255, 255); transform-origin: 253.561px 254.875px 0px;" id="elnwj99nxihtc" class="animable"></path><path d="M248.5,256.8h2.68a.51.51,0,0,0,.51-.51v-2.83a.51.51,0,0,0-.51-.51h-1.93a.5.5,0,0,0-.49.38l-.76,2.83A.51.51,0,0,0,248.5,256.8Z" style="fill: rgb(255, 255, 255); transform-origin: 249.837px 254.875px 0px;" id="el1dtto6vu2ji" class="animable"></path><path d="M244.79,256.8h2.68a.5.5,0,0,0,.51-.51v-2.83a.51.51,0,0,0-.51-.51h-1.92a.5.5,0,0,0-.49.38l-.76,2.83A.51.51,0,0,0,244.79,256.8Z" style="fill: rgb(255, 255, 255); transform-origin: 246.132px 254.875px 0px;" id="eldnj029f831t" class="animable"></path><path d="M241.09,256.8h2.68a.51.51,0,0,0,.51-.51v-2.83a.51.51,0,0,0-.51-.51h-1.92a.51.51,0,0,0-.5.38l-.75,2.83A.51.51,0,0,0,241.09,256.8Z" style="fill: rgb(255, 255, 255); transform-origin: 242.432px 254.875px 0px;" id="elxfeo9klmjl" class="animable"></path><path d="M237.39,256.8h2.68a.51.51,0,0,0,.51-.51v-2.83a.51.51,0,0,0-.51-.51h-1.92a.5.5,0,0,0-.5.38l-.75,2.83A.5.5,0,0,0,237.39,256.8Z" style="fill: rgb(255, 255, 255); transform-origin: 238.73px 254.875px 0px;" id="ele497vmidlqc" class="animable"></path><path d="M233.69,256.8h2.68a.51.51,0,0,0,.51-.51v-2.83a.51.51,0,0,0-.51-.51h-1.93a.5.5,0,0,0-.49.38l-.76,2.83A.51.51,0,0,0,233.69,256.8Z" style="fill: rgb(255, 255, 255); transform-origin: 235.027px 254.875px 0px;" id="elisctznm6xp" class="animable"></path><path d="M230,256.8h2.68a.51.51,0,0,0,.52-.51v-2.83a.51.51,0,0,0-.52-.51h-1.92a.5.5,0,0,0-.49.38l-.76,2.83A.51.51,0,0,0,230,256.8Z" style="fill: rgb(255, 255, 255); transform-origin: 231.347px 254.875px 0px;" id="elcpcu5obrzxf" class="animable"></path><path d="M226.28,256.8H229a.51.51,0,0,0,.51-.51v-2.83A.51.51,0,0,0,229,253H227a.51.51,0,0,0-.5.38l-.75,2.83A.51.51,0,0,0,226.28,256.8Z" style="fill: rgb(255, 255, 255); transform-origin: 227.627px 254.9px 0px;" id="elmoldut2d4cb" class="animable"></path><path d="M222.58,256.8h2.68a.51.51,0,0,0,.51-.51v-2.83a.51.51,0,0,0-.51-.51h-1.92a.5.5,0,0,0-.5.38l-.75,2.83A.5.5,0,0,0,222.58,256.8Z" style="fill: rgb(255, 255, 255); transform-origin: 223.92px 254.875px 0px;" id="eldy2sv0l2hdm" class="animable"></path><path d="M218.88,256.8h2.68a.51.51,0,0,0,.51-.51v-2.83a.51.51,0,0,0-.51-.51h-1.93a.5.5,0,0,0-.49.38l-.76,2.83A.51.51,0,0,0,218.88,256.8Z" style="fill: rgb(255, 255, 255); transform-origin: 220.217px 254.875px 0px;" id="elup7kd8xjin" class="animable"></path><path d="M215.18,256.8h2.67a.51.51,0,0,0,.52-.51v-2.83a.51.51,0,0,0-.52-.51h-1.92a.5.5,0,0,0-.49.38l-.76,2.83A.51.51,0,0,0,215.18,256.8Z" style="fill: rgb(255, 255, 255); transform-origin: 216.517px 254.875px 0px;" id="eldrsz8qflcdr" class="animable"></path><path d="M211.47,256.8h2.68a.51.51,0,0,0,.51-.51v-2.83a.51.51,0,0,0-.51-.51h-1.92a.51.51,0,0,0-.5.38l-.75,2.83A.51.51,0,0,0,211.47,256.8Z" style="fill: rgb(255, 255, 255); transform-origin: 212.812px 254.875px 0px;" id="elrzuvrum45o" class="animable"></path></g></g><g id="elwvzw2kiq8qd"><rect x="208.78" y="254.88" width="59.9" height="4.46" style="fill: #1DA1F2; transform-origin: 238.73px 257.11px 0px; transform: rotate(180deg);" class="animable" id="elfx3l5g5j4qu"></rect></g><g id="elemakt9ho3jv"><rect x="208.78" y="254.88" width="59.9" height="4.46" style="fill: rgb(255, 255, 255); opacity: 0.6; transform-origin: 238.73px 257.11px 0px; transform: rotate(180deg);" class="animable" id="el0bbsw3ablkdm"></rect></g><path d="M279.71,259.21H297.3v-1.57a5.36,5.36,0,0,0-5.64-5.34l-6.89.38a5.34,5.34,0,0,0-5.06,5.34Z" style="fill: #1DA1F2; transform-origin: 288.505px 255.751px 0px;" id="elfugkpldkdm4" class="animable"></path><g id="elljwvb5hliyj"><path d="M279.71,259.21H297.3v-1.57a5.36,5.36,0,0,0-5.64-5.34l-6.89.38a5.34,5.34,0,0,0-5.06,5.34Z" style="fill: rgb(255, 255, 255); opacity: 0.6; transform-origin: 288.505px 255.751px 0px;" class="animable" id="elefvdeymh4ao"></path></g><path d="M223.94,165.19h6.62l-4.89,69.95h-6.62a1.83,1.83,0,0,1-1.85-2l4.61-66A2.17,2.17,0,0,1,223.94,165.19Z" style="fill: #1DA1F2; transform-origin: 223.876px 200.165px 0px;" id="elwdwwe6sq82" class="animable"></path><g id="ely39e67uf9ne"><path d="M223.94,165.19h6.62l-4.89,69.95h-6.62a1.83,1.83,0,0,1-1.85-2l4.61-66A2.17,2.17,0,0,1,223.94,165.19Z" style="fill: rgb(255, 255, 255); opacity: 0.7; transform-origin: 223.876px 200.165px 0px;" class="animable" id="elzjz50e6gugr"></path></g><path d="M222.85,235.14h99.24a2.17,2.17,0,0,0,2.13-2l4.61-66a1.83,1.83,0,0,0-1.85-2H227.74a2.17,2.17,0,0,0-2.13,2l-4.61,66A1.83,1.83,0,0,0,222.85,235.14Z" style="fill: rgb(38, 50, 56); transform-origin: 274.915px 200.14px 0px;" id="eli9rf28toj" class="animable"></path><g id="elawnhz6kr3br"><path d="M307.1,232.17h0a.69.69,0,0,0,.68-.64l.17-2.37a.59.59,0,0,0-.59-.64h0a.69.69,0,0,0-.68.64l-.17,2.37A.6.6,0,0,0,307.1,232.17Z" style="opacity: 0.1; transform-origin: 307.23px 230.345px 0px;" class="animable" id="el3w811pwxe36"></path></g><g id="eltzj8yp4yuf"><path d="M304.17,232.17h0a.69.69,0,0,0,.68-.64l.17-2.37a.59.59,0,0,0-.59-.64h0a.7.7,0,0,0-.68.64l-.16,2.37A.58.58,0,0,0,304.17,232.17Z" style="opacity: 0.1; transform-origin: 304.305px 230.345px 0px;" class="animable" id="elo58gphsxonf"></path></g><g id="elwd3z750s69"><path d="M301.25,232.17h0a.69.69,0,0,0,.67-.64l.17-2.37a.59.59,0,0,0-.59-.64h0a.7.7,0,0,0-.68.64l-.16,2.37A.59.59,0,0,0,301.25,232.17Z" style="opacity: 0.1; transform-origin: 301.375px 230.345px 0px;" class="animable" id="el80rqe706kj2"></path></g><g id="ely88u8lzv1xa"><path d="M312.78,228.52a2,2,0,0,0-1.95,1.82,1.68,1.68,0,0,0,1.7,1.83,2,2,0,0,0,1.94-1.83A1.67,1.67,0,0,0,312.78,228.52Zm-.22,3.11a1.18,1.18,0,0,1-1.19-1.29,1.39,1.39,0,0,1,1.37-1.28,1.18,1.18,0,0,1,1.2,1.28A1.4,1.4,0,0,1,312.56,231.63Z" style="opacity: 0.1; transform-origin: 312.65px 230.345px 0px;" class="animable" id="elfv5y63ayx2"></path></g><g id="elffswbwt2wgs"><path d="M261.37,219.66a2.85,2.85,0,0,0-2.77,2.47l-1.53,13h24.21l.29-13a2.39,2.39,0,0,0-2.43-2.47Zm3.24,9.4a5.44,5.44,0,0,1,5.34-5,4.59,4.59,0,0,1,4.64,5,5.43,5.43,0,0,1-5.34,5A4.59,4.59,0,0,1,264.61,229.06Z" style="opacity: 0.1; transform-origin: 269.321px 227.395px 0px;" class="animable" id="eln05lypqkc4d"></path></g><path d="M260.26,259.17h26.52l-1.78-37a2.59,2.59,0,0,0-2.59-2.47H264.63a2.6,2.6,0,0,0-2.59,2.47Zm8.27-30.11a5,5,0,1,1,5,5A5,5,0,0,1,268.53,229.06Z" style="fill: #1DA1F2; transform-origin: 273.52px 239.435px 0px;" id="elbh4hhkmvdig" class="animable"></path><g id="el90obnh692rr"><path d="M260.26,259.17h26.52l-1.78-37a2.59,2.59,0,0,0-2.59-2.47H264.63a2.6,2.6,0,0,0-2.59,2.47Zm8.27-30.11a5,5,0,1,1,5,5A5,5,0,0,1,268.53,229.06Z" style="fill: rgb(255, 255, 255); opacity: 0.7; transform-origin: 273.52px 239.435px 0px;" class="animable" id="el1gx33ltmhvy"></path></g><polygon points="316.64 252.22 309.04 240.83 309.78 240.66 317.71 251.98 316.64 252.22" style="fill: #1DA1F2; transform-origin: 313.375px 246.44px 0px;" id="elv21y078ezv" class="animable"></polygon><polygon points="347.8 252.18 355.41 240.79 354.67 240.62 346.73 251.94 347.8 252.18" style="fill: #1DA1F2; transform-origin: 351.07px 246.4px 0px;" id="elfnewmsl1pg" class="animable"></polygon><polygon points="331.05 250.36 332.38 250.36 332.02 232.38 331.4 232.38 331.05 250.36" style="fill: #1DA1F2; transform-origin: 331.715px 241.37px 0px;" id="elvydd7j60ioq" class="animable"></polygon><polygon points="347.56 252.14 347.13 252.94 346.24 252.94 347 252 347.56 252.14" style="fill: rgb(38, 50, 56); transform-origin: 346.9px 252.47px 0px;" id="el1wtx2r372pk" class="animable"></polygon><polygon points="316.86 252.14 317.29 252.94 318.18 252.94 317.41 252 316.86 252.14" style="fill: rgb(38, 50, 56); transform-origin: 317.52px 252.47px 0px;" id="elitjeybakphj" class="animable"></polygon><g id="el521qenyfktr"><rect x="330.99" y="250.61" width="1.44" height="0.95" style="fill: rgb(38, 50, 56); transform-origin: 331.71px 251.085px 0px; transform: rotate(-89.76deg);" class="animable" id="eliwjyhyd7cr"></rect></g><g id="elhipmvdhcuo"><rect x="343.05" y="256.94" width="3.76" height="2.34" style="fill: #1DA1F2; transform-origin: 344.93px 258.11px 0px; transform: rotate(180deg);" class="animable" id="elqywx4y39k7m"></rect></g><g id="elsnm3cdozx0b"><rect x="317.52" y="256.94" width="3.76" height="2.34" style="fill: #1DA1F2; transform-origin: 319.4px 258.11px 0px; transform: rotate(180deg);" class="animable" id="elnnr1whru2k9"></rect></g><path d="M316.21,258l8.17.89a72.73,72.73,0,0,0,15.61,0l8.17-.89v-5.07l-6.64-.87a72.92,72.92,0,0,0-18.67,0l-6.64.87Z" style="fill: #1DA1F2; transform-origin: 332.185px 255.385px 0px;" id="el34v86mrszab" class="animable"></path><path d="M316.21,258l8.17.89a72.73,72.73,0,0,0,15.61,0l8.17-.89v-5.07l-6.64-.87a72.92,72.92,0,0,0-18.67,0l-6.64.87Z" style="fill: rgb(38, 50, 56); transform-origin: 332.185px 255.385px 0px;" id="elbwwpfbfgajo" class="animable"></path><path d="M343.41,255.59a1.52,1.52,0,1,0,1.52-1.52A1.52,1.52,0,0,0,343.41,255.59Z" style="fill: rgb(255, 255, 255); transform-origin: 344.93px 255.59px 0px;" id="elbnlw9n512s" class="animable"></path><circle cx="344.93" cy="255.6" r="0.91" style="fill: #1DA1F2; transform-origin: 344.93px 255.6px 0px;" id="el7wq0g79skv8" class="animable"></circle><path d="M336.35,255.6a.49.49,0,0,0,.48.48.48.48,0,0,0,0-1A.49.49,0,0,0,336.35,255.6Z" style="fill: rgb(255, 255, 255); transform-origin: 336.84px 255.58px 0px;" id="elikcsglwlk3" class="animable"></path><path d="M334.65,255.6a.48.48,0,0,0,.48.48.48.48,0,0,0,0-1A.48.48,0,0,0,334.65,255.6Z" style="fill: rgb(255, 255, 255); transform-origin: 335.139px 255.58px 0px;" id="elzu3mrxpabj" class="animable"></path><path d="M332.94,255.6a.48.48,0,0,0,.48.48.48.48,0,1,0,0-1A.48.48,0,0,0,332.94,255.6Z" style="fill: rgb(255, 255, 255); transform-origin: 333.429px 255.58px 0px;" id="el08m44e0nn4u" class="animable"></path><path d="M331.23,255.6a.49.49,0,0,0,.48.48.48.48,0,0,0,0-1A.49.49,0,0,0,331.23,255.6Z" style="fill: rgb(255, 255, 255); transform-origin: 331.72px 255.58px 0px;" id="el0qxj2qv7a85e" class="animable"></path><path d="M329.53,255.6a.48.48,0,1,0,.48-.48A.48.48,0,0,0,329.53,255.6Z" style="fill: rgb(255, 255, 255); transform-origin: 330.01px 255.6px 0px;" id="elb57wdpj40hn" class="animable"></path><path d="M327.82,255.6a.48.48,0,0,0,.48.48.48.48,0,1,0,0-1A.48.48,0,0,0,327.82,255.6Z" style="fill: rgb(255, 255, 255); transform-origin: 328.309px 255.58px 0px;" id="el2tt6vsmxvgi" class="animable"></path><path d="M326.11,255.6a.49.49,0,0,0,.48.48.48.48,0,0,0,0-1A.49.49,0,0,0,326.11,255.6Z" style="fill: rgb(255, 255, 255); transform-origin: 326.6px 255.58px 0px;" id="elb6o5l92e0d" class="animable"></path></g><defs>     <filter id="active" height="200%">         <feMorphology in="SourceAlpha" result="DILATED" operator="dilate" radius="2"></feMorphology>                <feFlood flood-color="#32DFEC" flood-opacity="1" result="PINK"></feFlood>        <feComposite in="PINK" in2="DILATED" operator="in" result="OUTLINE"></feComposite>        <feMerge>            <feMergeNode in="OUTLINE"></feMergeNode>            <feMergeNode in="SourceGraphic"></feMergeNode>        </feMerge>    </filter>    <filter id="hover" height="200%">        <feMorphology in="SourceAlpha" result="DILATED" operator="dilate" radius="2"></feMorphology>                <feFlood flood-color="#ff0000" flood-opacity="0.5" result="PINK"></feFlood>        <feComposite in="PINK" in2="DILATED" operator="in" result="OUTLINE"></feComposite>        <feMerge>            <feMergeNode in="OUTLINE"></feMergeNode>            <feMergeNode in="SourceGraphic"></feMergeNode>        </feMerge>            <feColorMatrix type="matrix" values="0   0   0   0   0                0   1   0   0   0                0   0   0   0   0                0   0   0   1   0 "></feColorMatrix>    </filter></defs></svg>