<svg  height="512" viewBox="0 0 32 32" width="512" xmlns="http://www.w3.org/2000/svg"><g id="add_message" data-name="add message"><path fill="#4e4e4e" d="m30 10.18a6 6 0 0 0 -11.93-.18h-15.07a1 1 0 0 0 -1 1v16a1 1 0 0 0 1 1h23a1 1 0 0 0 1-1v-11.63a6 6 0 0 0 3-5.19zm-11.65 1.82a5.91 5.91 0 0 0 1.29 2.19l-5 3.54-8.17-5.73s11.87 0 11.88 0zm6.65 14h-21v-13.31l10.07 7.09a.94.94 0 0 0 .56.18 1 1 0 0 0 .56-.18l6.09-4.29a6 6 0 0 0 2.75.68 6.25 6.25 0 0 0 1-.09zm-1-11.83a4 4 0 1 1 4-4 4 4 0 0 1 -4 4z"/><path d="m26 9h-1v-1a1 1 0 0 0 -2 0v1h-1a1 1 0 0 0 0 2h1v1a1 1 0 0 0 2 0v-1h1a1 1 0 0 0 0-2z"/></g></svg>