<svg height="20" viewBox="0 0 32 32" width="20" xmlns="http://www.w3.org/2000/svg"><g id="Layer_35" data-name="Layer 35"><path d="m2 20v-10a5 5 0 0 1 5-5h19l-1.6-1.2a1 1 0 1 1 1.2-1.6l4 3a1 1 0 0 1 0 1.6l-4 3a1 1 0 0 1 -.6.2 1 1 0 0 1 -.8-.4 1 1 0 0 1 .2-1.4l1.6-1.2h-19a3 3 0 0 0 -3 3v10a1 1 0 0 1 -2 0zm27-9a1 1 0 0 0 -1 1v10a3 3 0 0 1 -3 3h-19l1.6-1.2a1 1 0 0 0 -1.2-1.6l-4 3a1 1 0 0 0 0 1.6l4 3a1 1 0 0 0 .6.2 1 1 0 0 0 .8-.4 1 1 0 0 0 -.2-1.4l-1.6-1.2h19a5 5 0 0 0 5-5v-10a1 1 0 0 0 -1-1z"/></g></svg>